<svg aria-hidden="true" style="position: absolute; width: 0; height: 0; overflow: hidden;" version="1.1" xmlns="http://www.w3.org/2000/svg" xmlns:xlink="http://www.w3.org/1999/xlink">
<defs>
<symbol id="icon-chevron-right" viewBox="0 0 32 32">
<path d="M12 6c-0.552 0-1.052 0.224-1.414 0.586v0c-0.362 0.362-0.586 0.862-0.586 1.414s0.224 1.052 0.586 1.414l6.586 6.586-6.586 6.586c-0.362 0.362-0.586 0.862-0.586 1.414s0.224 1.052 0.586 1.414v0c0.362 0.362 0.862 0.586 1.414 0.586s1.052-0.224 1.414-0.586l8-8c0.362-0.362 0.586-0.862 0.586-1.414s-0.224-1.052-0.586-1.414l-8-8c-0.362-0.362-0.862-0.586-1.414-0.586v0z"></path>
</symbol>
<symbol id="icon-key" viewBox="0 0 32 32">
<path d="M12 1.667c-3.467 0-6.113 0.696-7.875 2.459-1.763 1.761-2.459 4.408-2.459 7.875v8c0 3.467 0.696 6.113 2.459 7.875 1.761 1.763 4.408 2.459 7.875 2.459h8c3.467 0 6.113-0.696 7.875-2.459 1.763-1.761 2.459-4.408 2.459-7.875v-8c0-3.467-0.696-6.113-2.459-7.875-1.761-1.763-4.408-2.459-7.875-2.459zM12 3.667h8c3.2 0 5.22 0.637 6.459 1.875 1.237 1.239 1.875 3.259 1.875 6.459v8c0 3.2-0.637 5.22-1.875 6.459-1.239 1.237-3.259 1.875-6.459 1.875h-8c-3.2 0-5.22-0.637-6.459-1.875-1.237-1.239-1.875-3.259-1.875-6.459v-8c0-3.2 0.637-5.22 1.875-6.459 1.239-1.237 3.259-1.875 6.459-1.875z"></path>
<path d="M17.773 7.693c-0.006-0-0.012-0-0.019-0-1.799 0-3.428 0.729-4.607 1.907l0-0c-1.587 1.587-2.033 3.787-1.647 5.845l-3.167 3.167c-0.005 0.006-0.011 0.013-0.018 0.020l-0.001 0.001c-0.52 0.549-0.747 1.123-0.621 1.932l-0.005-0.021 0.213 1.601c0.003 0.014 0.005 0.021 0.007 0.028l-0.002-0.007c0.156 1.017 0.876 1.797 1.955 1.933l1.579 0.209c0.777 0.116 1.4-0.064 1.967-0.661l3.164-3.151c2.109 0.4 4.305-0.101 5.844-1.645 0 0 0.001 0 0.001 0s0.001 0 0.001 0h-0c2.54-2.557 2.541-6.724-0.005-9.256-1.185-1.176-2.818-1.903-4.62-1.903-0.007 0-0.013 0-0.020 0h0.001zM17.776 9.683c1.164 0 2.332 0.443 3.227 1.333 1.772 1.76 1.773 4.633-0.005 6.424-0.82 0.824-1.954 1.334-3.208 1.334-0.485 0-0.952-0.076-1.39-0.217l0.032 0.009c-0.089-0.029-0.192-0.046-0.299-0.046-0.276 0-0.526 0.112-0.707 0.292l-1.484 1.48-0.432-0.435c-0.181-0.183-0.433-0.296-0.711-0.296-0.274 0-0.522 0.11-0.703 0.289l0-0c-0.184 0.181-0.297 0.433-0.297 0.711 0 0.274 0.11 0.522 0.288 0.702l-0-0 0.436 0.44-0.549 0.549c-0.007 0.007-0.014 0.014-0.021 0.021l-0 0c0.085-0.091-0.277 0.049-0.219 0.057 0.001-0-0.005-0.001-0.010-0.002l-0.006-0.001-1.6-0.213c-0.001 0-0.002 0-0.003 0s-0.002 0-0.004 0h0c0.013 0.001-0.227-0.231-0.229-0.253l-0.211-1.58c-0.001-0.012-0.002-0.019-0.003-0.027l0.001 0.005c0.017 0.116 0.137-0.295 0.096-0.253l3.423-3.421c0.18-0.181 0.291-0.43 0.291-0.705 0-0.105-0.016-0.207-0.046-0.302l0.002 0.007c-0.131-0.405-0.206-0.872-0.206-1.355 0-1.256 0.509-2.394 1.332-3.218l-0 0c0.82-0.821 1.954-1.329 3.207-1.329 0.003 0 0.007 0 0.010 0h-0z"></path>
<path d="M17.86 12.933c-0.736 0-1.333 0.597-1.333 1.333v0c0 0.736 0.597 1.333 1.333 1.333v0h0.009c0.736 0 1.333-0.597 1.333-1.333v0c0-0.736-0.597-1.333-1.333-1.333v0z"></path>
</symbol>
<symbol id="icon-setting" viewBox="0 0 32 32">
<path d="M16 30.173c-0.893 0-1.8-0.201-2.506-0.614l-7.334-4.227c-2.986-2.013-3.172-2.32-3.172-5.48v-7.706c0-3.161 0.173-3.468 3.107-5.454l7.386-4.266c1.401-0.813 3.6-0.813 5.001 0l7.36 4.24c2.986 2.013 3.173 2.32 3.173 5.48v7.694c0 3.159-0.173 3.466-3.107 5.453l-7.387 4.266c-0.72 0.413-1.626 0.614-2.52 0.614zM16 3.826c-0.56 0-1.107 0.107-1.493 0.334l-7.334 4.24c-2.173 1.467-2.173 1.467-2.173 3.747v7.694c0 2.28 0 2.28 2.226 3.786l7.28 4.2c0.787 0.453 2.213 0.453 2.999 0l7.334-4.24c2.16-1.467 2.16-1.467 2.16-3.747v-7.694c0-2.28 0-2.28-2.227-3.786l-7.28-4.2c-0.387-0.227-0.934-0.334-1.494-0.334z"></path>
<path d="M16 21c-2.761-0.001-4.999-2.239-5-5v-0c0.001-2.761 2.239-4.999 5-5h0c2.761 0.001 4.999 2.239 5 5v0c-0.001 2.761-2.239 4.999-5 5h-0zM16 13c-1.656 0.002-2.998 1.344-3 3v0c0.002 1.656 1.344 2.998 3 3h0c1.656-0.002 2.998-1.344 3-3v-0c-0.002-1.656-1.344-2.998-3-3h-0z"></path>
</symbol>
<symbol id="icon-d-square" viewBox="0 0 32 32">
<path d="M20 30.333h-8c-7.24 0-10.333-3.093-10.333-10.333v-8c0-7.24 3.093-10.333 10.333-10.333h8c7.24 0 10.333 3.093 10.333 10.333v8c0 7.24-3.093 10.333-10.333 10.333zM12 3.667c-6.147 0-8.333 2.187-8.333 8.333v8c0 6.147 2.187 8.333 8.333 8.333h8c6.147 0 8.333-2.187 8.333-8.333v-8c0-6.147-2.187-8.333-8.333-8.333h-8z"></path>
<path d="M16 17.44c-0.173 0-0.347-0.040-0.507-0.133l-7.067-4.080c-0.299-0.174-0.497-0.493-0.497-0.858 0-0.185 0.051-0.358 0.139-0.507l-0.002 0.005c0.28-0.48 0.893-0.64 1.36-0.36l6.56 3.8 6.52-3.773c0.48-0.28 1.093-0.107 1.36 0.36s0.107 1.093-0.36 1.36l-7.013 4.053c-0.147 0.080-0.32 0.133-0.493 0.133z"></path>
<path d="M16 24.693c-0.547 0-1-0.453-1-1v-7.253c0-0.547 0.453-1 1-1s1 0.453 1 1v7.253c0 0.547-0.453 1-1 1z"></path>
<path d="M16 25c-0.773 0-1.533-0.173-2.147-0.507l-4.267-2.373c-1.28-0.707-2.267-2.4-2.267-3.867v-4.52c0-1.453 1-3.147 2.267-3.867l4.267-2.373c1.227-0.68 3.067-0.68 4.293 0l4.267 2.373c1.28 0.707 2.267 2.4 2.267 3.867v4.52c0 1.453-1 3.147-2.267 3.867l-4.267 2.373c-0.613 0.347-1.373 0.507-2.147 0.507zM16 9c-0.44 0-0.867 0.080-1.173 0.253l-4.267 2.373c-0.653 0.36-1.24 1.373-1.24 2.107v4.52c0 0.747 0.587 1.747 1.24 2.107l4.267 2.373c0.613 0.347 1.733 0.347 2.347 0l4.267-2.373c0.653-0.36 1.24-1.373 1.24-2.107v-4.52c0-0.747-0.587-1.747-1.24-2.107l-4.267-2.373c-0.307-0.173-0.733-0.253-1.173-0.253z"></path>
</symbol>
<symbol id="icon-user-square" viewBox="0 0 32 32">
<path d="M20 30.333h-8c-1.76 0-3.227-0.173-4.467-0.547-0.422-0.133-0.722-0.52-0.722-0.977 0-0.022 0.001-0.044 0.002-0.066l-0 0.003c0.333-3.987 4.373-7.12 9.187-7.12s8.84 3.12 9.187 7.12c0.040 0.48-0.253 0.907-0.72 1.040-1.24 0.373-2.707 0.547-4.467 0.547zM8.96 28.080c0.88 0.173 1.88 0.253 3.040 0.253h8c1.16 0 2.16-0.080 3.040-0.253-0.707-2.56-3.627-4.453-7.040-4.453s-6.333 1.893-7.040 4.453z"></path>
<path d="M12 1.667c-3.467 0-6.113 0.696-7.875 2.459-1.763 1.761-2.459 4.408-2.459 7.875v8c0 2.62 0.385 4.747 1.347 6.417 0.96 1.671 2.524 2.804 4.528 3.372 0.081 0.024 0.175 0.038 0.272 0.038 0.522 0 0.951-0.4 0.996-0.911l0-0.004c0.24-2.833 3.277-5.284 7.191-5.284s6.951 2.451 7.191 5.284c0.045 0.514 0.474 0.915 0.996 0.915 0.096 0 0.189-0.014 0.277-0.039l-0.007 0.002c2.005-0.568 3.568-1.701 4.529-3.373 0.961-1.671 1.347-3.796 1.347-6.416v-8c0-3.467-0.696-6.113-2.459-7.875-1.761-1.763-4.408-2.459-7.875-2.459zM12 3.667h8c3.2 0 5.22 0.637 6.459 1.875 1.237 1.239 1.875 3.259 1.875 6.459v8c0 2.42-0.376 4.193-1.080 5.419-0.556 0.965-1.397 1.58-2.48 2.048-1.019-3.403-4.553-5.84-8.773-5.84s-7.755 2.437-8.773 5.84c-1.083-0.468-1.924-1.083-2.48-2.048-0.704-1.225-1.080-3-1.080-5.419v-8c0-3.2 0.637-5.22 1.875-6.459 1.239-1.237 3.259-1.875 6.459-1.875zM16 8.333c-3.185 0.008-5.766 2.588-5.773 5.773v0.001c0 3.179 2.591 5.787 5.773 5.787s5.773-2.608 5.773-5.787c-0.008-3.185-2.588-5.766-5.773-5.773h-0.001zM16 10.333c0.006-0 0.014-0 0.021-0 2.072 0 3.752 1.68 3.752 3.752 0 0.008-0 0.015-0 0.023v-0.001c0 0.006 0 0.014 0 0.021 0 2.080-1.686 3.765-3.765 3.765-0.003 0-0.006 0-0.008 0h0c-0.002 0-0.005 0-0.008 0-2.080 0-3.765-1.686-3.765-3.765 0-0.008 0-0.015 0-0.023v0.001c-0-0.006-0-0.014-0-0.021 0-2.072 1.68-3.752 3.752-3.752 0.008 0 0.015 0 0.023 0h-0.001z"></path>
<path d="M16 19.893c-3.19-0.008-5.773-2.595-5.773-5.787 0 0 0 0 0 0v0c0-3.187 2.587-5.773 5.773-5.773s5.773 2.587 5.773 5.773c0 0 0 0 0 0 0 3.191-2.583 5.779-5.773 5.787h-0.001zM16 10.333c-2.045 0.056-3.681 1.727-3.681 3.78s1.636 3.724 3.676 3.78l0.005 0c2.045-0.056 3.681-1.727 3.681-3.78s-1.636-3.724-3.676-3.78l-0.005-0z"></path>
</symbol>
<symbol id="icon-wallet-money" viewBox="0 0 32 32">
<path d="M4.803 21.495c-0 0-0 0-0 0-0.548 0-0.992 0.44-1 0.986v2.707c0 2.917 2.676 5.145 5.773 5.145 3.096 0 5.76-2.232 5.76-5.147v-2.705c0-0.552-0.448-1-1-1s-1 0.448-1 1v0c0 0.828-0.363 1.504-1.024 2.037-0.66 0.533-1.631 0.883-2.736 0.883-1.115 0-2.089-0.349-2.751-0.88-0.661-0.532-1.023-1.203-1.023-2.040-0.008-0.547-0.452-0.987-1-0.987-0 0-0 0-0 0v0zM12.667 26.56c-0.617 0.98-1.607 1.773-3.091 1.773-1.48 0-2.473-0.792-3.097-1.768 0.92 0.493 1.949 0.836 3.097 0.836 1.145 0 2.173-0.344 3.091-0.841z"></path>
<path d="M9.547 13.68c-1.547 0-2.973 0.533-4.031 1.46-1.040 0.911-1.729 2.216-1.729 3.672 0 0.853 0.243 1.653 0.648 2.328 0.005 0.006 0.007 0.010 0.010 0.013l-0.002-0.002c1.005 1.636 2.955 2.584 5.117 2.584 2.157 0 4.117-0.936 5.123-2.589-0.002 0.004-0.001 0.002 0 0l0.003-0.006c0.406-0.664 0.647-1.468 0.648-2.328v-0c0-1.453-0.687-2.779-1.768-3.681-1.052-0.904-2.467-1.451-4.019-1.451zM9.547 15.68c1.084 0 2.040 0.384 2.721 0.971 0.004 0.004 0.007 0.007 0.011 0.011l0 0c0.676 0.563 1.055 1.315 1.055 2.151 0 0.48-0.131 0.907-0.364 1.297-0.569 0.933-1.835 1.625-3.409 1.625-1.569 0-2.84-0.707-3.409-1.627-0.229-0.368-0.364-0.814-0.364-1.292 0-0.001 0-0.003 0-0.004v0c0-0.836 0.377-1.583 1.044-2.167 0 0 0.001 0 0.001 0s0.001 0 0.001 0h-0c0.675-0.591 1.623-0.965 2.713-0.965z"></path>
<path d="M9.576 13.667c-3.108 0-5.773 2.232-5.773 5.147v3.667c0 1.453 0.711 2.74 1.776 3.596s2.476 1.325 3.997 1.325c1.52 0 2.928-0.467 3.992-1.323 1.063-0.856 1.768-2.143 1.768-3.6v-3.667c0-1.456-0.685-2.771-1.729-3.684-0.002-0.002-0.004-0.004-0.005-0.005l-0-0c-1.053-0.907-2.471-1.456-4.027-1.456zM9.576 15.667c1.081 0 2.035 0.384 2.716 0.969 0.66 0.579 1.044 1.341 1.044 2.176v3.667c0 0.837-0.364 1.511-1.024 2.043-0.66 0.531-1.629 0.88-2.736 0.88s-2.080-0.352-2.745-0.885c-0.664-0.533-1.028-1.211-1.028-2.037v-3.667c0-1.673 1.6-3.145 3.773-3.145zM25.227 12.267c-1.007 0-1.952 0.405-2.631 1.1-0.678 0.668-1.098 1.597-1.098 2.623 0 0.119 0.006 0.236 0.017 0.351l-0.001-0.015c0.169 2.001 1.947 3.408 3.872 3.408h2.615c0.015-0.001 0.028-0.002 0.040-0.003l-0.004 0c1.263-0.045 2.297-1.093 2.297-2.36v-2.744c0-1.267-1.035-2.315-2.297-2.36-0.010-0.001-0.022-0.001-0.035-0.001h-0.001zM25.227 14.267h2.737c0.231 0.007 0.369 0.16 0.369 0.36v2.747c0 0.2-0.139 0.353-0.369 0.36h-2.579c-0.952 0-1.809-0.701-1.883-1.577 0-0.002 0-0.003 0-0.005s0-0.004 0-0.006v0c-0.005-0.048-0.008-0.104-0.008-0.161 0-0.472 0.195-0.899 0.51-1.203l0-0c0.006-0.006 0.012-0.012 0.018-0.018l0-0c0.307-0.316 0.717-0.497 1.203-0.497z"></path>
<path d="M9.333 3.667c-0.412 0-0.813 0.029-1.205 0.088h-0.003c-3.832 0.483-6.459 3.552-6.459 7.579v2.667c0 0.552 0.448 1 1 1v0c0.552 0 1-0.448 1-1v0-2.667c0-3.225 1.744-5.221 4.711-5.593 0.016-0.003 0.026-0.004 0.036-0.006l-0.006 0.001c0.293-0.045 0.6-0.068 0.927-0.068h12c0.32 0 0.6 0.013 0.836 0.053 0.011 0.002 0.028 0.004 0.045 0.006l0.005 0c3.005 0.349 4.781 2.36 4.781 5.607v0.933h-1.773c-1.005 0-1.949 0.407-2.627 1.1-0.68 0.669-1.102 1.599-1.102 2.627 0 0.117 0.005 0.233 0.016 0.347l-0.001-0.015c0.169 2.001 1.947 3.408 3.872 3.408h1.615v0.932c0 1.777-0.577 3.16-1.541 4.125-0.965 0.964-2.347 1.541-4.125 1.541h-3.333c-0.552 0-1 0.448-1 1v0c0 0.552 0.448 1 1 1v0h3.333c2.223 0 4.173-0.756 5.541-2.125 1.369-1.368 2.125-3.32 2.125-5.541v-1.933c0-0.552-0.448-1-1-1v0h-2.613c-0.953 0-1.811-0.701-1.884-1.577 0-0.002 0-0.003 0-0.005s0-0.004 0-0.006v0c-0.005-0.048-0.008-0.104-0.008-0.161 0-0.472 0.195-0.899 0.51-1.203l0-0c0.006-0.006 0.012-0.012 0.018-0.018l0-0c0.307-0.316 0.717-0.497 1.203-0.497h2.773c0.552 0 1-0.448 1-1v0-1.932c0-4.053-2.671-7.129-6.533-7.588-0.318-0.050-0.684-0.079-1.057-0.079-0.027 0-0.053 0-0.080 0l0.004-0z"></path>
</symbol>
<symbol id="icon-discount-shape" viewBox="0 0 32 32">
<path d="M16 30.333c-0.84 0-1.627-0.32-2.213-0.92l-2.027-2.027c-0.16-0.16-0.587-0.333-0.8-0.333h-2.88c-1.733 0-3.133-1.4-3.133-3.133v-2.88c0-0.213-0.173-0.64-0.333-0.8l-2.027-2.027c-0.587-0.587-0.92-1.373-0.92-2.213s0.32-1.627 0.92-2.213l2.027-2.027c0.16-0.16 0.333-0.587 0.333-0.8v-2.88c0-1.733 1.4-3.133 3.133-3.133h2.88c0.213 0 0.64-0.173 0.8-0.333l2.027-2.027c1.173-1.173 3.253-1.173 4.427 0l2.027 2.027c0.16 0.16 0.587 0.333 0.8 0.333h2.88c1.733 0 3.133 1.4 3.133 3.133v2.88c0 0.213 0.173 0.64 0.333 0.8l2.027 2.027c0.587 0.587 0.92 1.373 0.92 2.213s-0.32 1.627-0.92 2.213l-2.027 2.027c-0.16 0.16-0.333 0.587-0.333 0.8v2.88c0 1.733-1.4 3.133-3.133 3.133h-2.88c-0.213 0-0.64 0.173-0.8 0.333l-2.027 2.027c-0.587 0.6-1.373 0.92-2.213 0.92zM6.027 18.827c0.533 0.533 0.92 1.467 0.92 2.213v2.88c0 0.627 0.507 1.133 1.133 1.133h2.88c0.747 0 1.68 0.387 2.213 0.92l2.027 2.027c0.427 0.427 1.173 0.427 1.6 0l2.027-2.027c0.533-0.533 1.467-0.92 2.213-0.92h2.88c0.627 0 1.133-0.507 1.133-1.133v-2.88c0-0.747 0.387-1.68 0.92-2.213l2.027-2.027c0.206-0.203 0.333-0.485 0.333-0.797 0-0.001 0-0.002 0-0.003v0c0-0.307-0.12-0.587-0.333-0.8l-2.027-2.027c-0.533-0.533-0.92-1.467-0.92-2.213v-2.88c0-0.626-0.507-1.133-1.133-1.133v0h-2.88c-0.747 0-1.68-0.387-2.213-0.92l-2.027-2.027c-0.208-0.198-0.49-0.32-0.8-0.32s-0.592 0.122-0.8 0.32l0-0-2.027 2.027c-0.533 0.533-1.467 0.92-2.213 0.92h-2.88c-0.626 0-1.133 0.507-1.133 1.133v0 2.88c0 0.747-0.387 1.68-0.92 2.213l-2.027 2.027c-0.213 0.213-0.333 0.493-0.333 0.8s0.12 0.587 0.333 0.8l2.027 2.027z"></path>
<path d="M20 21.333c-0.747 0-1.347-0.6-1.347-1.333s0.6-1.333 1.333-1.333 1.333 0.6 1.333 1.333-0.587 1.333-1.32 1.333zM12.013 13.333c-0.747 0-1.347-0.6-1.347-1.333s0.6-1.333 1.333-1.333 1.333 0.6 1.333 1.333-0.587 1.333-1.32 1.333zM12 21c-0.253 0-0.507-0.093-0.707-0.293-0.179-0.181-0.29-0.431-0.29-0.707s0.111-0.525 0.29-0.707l8-8c0.387-0.387 1.027-0.387 1.413 0s0.387 1.027 0 1.413l-8 8c-0.2 0.2-0.453 0.293-0.707 0.293z"></path>
</symbol>
<symbol id="icon-message-question" viewBox="0 0 32 32">
<path d="M10.667 29.76c-0.373 0-0.76-0.093-1.107-0.28-0.76-0.4-1.227-1.2-1.227-2.053v-1.893c-4.027-0.413-6.667-3.373-6.667-7.613v-8c0-4.587 3.080-7.667 7.667-7.667h13.333c4.587 0 7.667 3.080 7.667 7.667v8c0 4.587-3.080 7.667-7.667 7.667h-5.027l-5.68 3.787c-0.387 0.253-0.84 0.387-1.293 0.387zM9.333 4.24c-3.44 0-5.667 2.227-5.667 5.667v8c0 3.44 2.227 5.667 5.667 5.667 0.547 0 1 0.453 1 1v2.84c0 0.173 0.107 0.253 0.173 0.293s0.2 0.080 0.347-0.013l5.933-3.947c0.16-0.107 0.36-0.173 0.56-0.173h5.333c3.44 0 5.667-2.227 5.667-5.667v-8c0-3.44-2.227-5.667-5.667-5.667h-13.347z"></path>
<path d="M16 16.147c-0.547 0-1-0.453-1-1v-0.28c0-1.547 1.133-2.307 1.56-2.6 0.493-0.333 0.653-0.56 0.653-0.907 0-0.667-0.547-1.213-1.213-1.213s-1.213 0.547-1.213 1.213c0 0.547-0.453 1-1 1s-1-0.453-1-1c0-1.773 1.44-3.213 3.213-3.213s3.213 1.44 3.213 3.213c0 1.52-1.12 2.28-1.533 2.56-0.52 0.347-0.68 0.573-0.68 0.947v0.28c0 0.56-0.453 1-1 1zM16 19.467c-0 0-0.001 0-0.001 0-0.552 0-0.999-0.447-0.999-0.999s0.446-0.998 0.997-0.999h0c0 0 0.001 0 0.001 0 0.552 0 0.999 0.447 0.999 0.999s-0.446 0.998-0.997 0.999h-0z"></path>
</symbol>
<symbol id="icon-search" viewBox="0 0 32 32">
<path d="M14.667 2.667c-6.612 0-12 5.388-12 12s5.388 12 12 12 12-5.388 12-12-5.388-12-12-12zM14.667 5.333c5.171 0 9.333 4.163 9.333 9.333s-4.163 9.333-9.333 9.333-9.333-4.163-9.333-9.333 4.163-9.333 9.333-9.333z"></path>
<path d="M21.257 21.257c-0.241 0.241-0.39 0.575-0.39 0.943s0.149 0.701 0.39 0.943l5.8 5.8c0.241 0.241 0.575 0.39 0.943 0.39s0.701-0.149 0.943-0.39v0c0.241-0.241 0.39-0.575 0.39-0.943s-0.149-0.701-0.39-0.943l-5.8-5.8c-0.241-0.241-0.575-0.39-0.943-0.39s-0.701 0.149-0.943 0.39v0z"></path>
</symbol>
<symbol id="icon-menu" viewBox="0 0 32 32">
<path d="M5.333 7.333c-0.368 0-0.667 0.298-0.667 0.667v0c0 0.368 0.298 0.667 0.667 0.667v0h21.333c0.368 0 0.667-0.298 0.667-0.667v0c0-0.368-0.298-0.667-0.667-0.667v0zM5.333 15.333c-0.368 0-0.667 0.298-0.667 0.667v0c0 0.368 0.298 0.667 0.667 0.667v0h21.333c0.368 0 0.667-0.298 0.667-0.667v0c0-0.368-0.298-0.667-0.667-0.667v0zM5.333 23.333c-0.368 0-0.667 0.298-0.667 0.667v0c0 0.368 0.298 0.667 0.667 0.667v0h21.333c0.368 0 0.667-0.298 0.667-0.667v0c0-0.368-0.298-0.667-0.667-0.667v0z"></path>
</symbol>
<symbol id="icon-x" viewBox="0 0 32 32">
<path d="M23.528 7.528l-16 16c-0.121 0.121-0.196 0.288-0.196 0.472s0.075 0.351 0.196 0.472v0c0.121 0.121 0.288 0.196 0.472 0.196s0.351-0.075 0.472-0.196v0l16-16c0.121-0.121 0.196-0.288 0.196-0.472s-0.075-0.351-0.196-0.472v0c-0.121-0.121-0.288-0.196-0.472-0.196s-0.351 0.075-0.472 0.196v0z"></path>
<path d="M8 7.333c-0 0-0.001 0-0.001 0-0.184 0-0.35 0.074-0.471 0.195v0c-0.121 0.121-0.196 0.288-0.196 0.472s0.075 0.351 0.196 0.472v0l16 16c0.121 0.121 0.288 0.196 0.472 0.196s0.351-0.075 0.472-0.196v0c0.121-0.121 0.196-0.288 0.196-0.472s-0.075-0.351-0.196-0.472v0l-16-16c-0.121-0.12-0.287-0.195-0.471-0.195-0 0-0.001 0-0.001 0h0z"></path>
</symbol>
</defs>
</svg>
